<mxfile host="app.diagrams.net" agent="Mozilla/5.0 (X11; Linux x86_64; rv:134.0) Gecko/20100101 Firefox/134.0" version="26.0.5">
  <diagram name="Page-1" id="KcH5u8CXG6JBmwsr6Q0t">
    <mxGraphModel dx="1222" dy="674" grid="1" gridSize="10" guides="1" tooltips="1" connect="1" arrows="1" fold="1" page="1" pageScale="1" pageWidth="850" pageHeight="1100" math="0" shadow="0">
      <root>
        <mxCell id="0" />
        <mxCell id="1" parent="0" />
        <mxCell id="JLwQQzpklkS4TawODwUs-1" value="MainWindow" style="swimlane;fontStyle=1;align=center;verticalAlign=top;childLayout=stackLayout;horizontal=1;startSize=26;horizontalStack=0;resizeParent=1;resizeParentMax=0;resizeLast=0;collapsible=1;marginBottom=0;whiteSpace=wrap;html=1;" vertex="1" parent="1">
          <mxGeometry x="80" y="390" width="200" height="584" as="geometry">
            <mxRectangle x="220" y="510" width="110" height="30" as="alternateBounds" />
          </mxGeometry>
        </mxCell>
        <mxCell id="JLwQQzpklkS4TawODwUs-12" value="+ ui: Ui::MainWindow *" style="text;strokeColor=none;fillColor=none;align=left;verticalAlign=top;spacingLeft=4;spacingRight=4;overflow=hidden;rotatable=0;points=[[0,0.5],[1,0.5]];portConstraint=eastwest;whiteSpace=wrap;html=1;" vertex="1" parent="JLwQQzpklkS4TawODwUs-1">
          <mxGeometry y="26" width="200" height="26" as="geometry" />
        </mxCell>
        <mxCell id="JLwQQzpklkS4TawODwUs-2" value="+ settings: Settings *" style="text;strokeColor=none;fillColor=none;align=left;verticalAlign=top;spacingLeft=4;spacingRight=4;overflow=hidden;rotatable=0;points=[[0,0.5],[1,0.5]];portConstraint=eastwest;whiteSpace=wrap;html=1;" vertex="1" parent="JLwQQzpklkS4TawODwUs-1">
          <mxGeometry y="52" width="200" height="26" as="geometry" />
        </mxCell>
        <mxCell id="JLwQQzpklkS4TawODwUs-15" value="+ localGame: Game *" style="text;strokeColor=none;fillColor=none;align=left;verticalAlign=top;spacingLeft=4;spacingRight=4;overflow=hidden;rotatable=0;points=[[0,0.5],[1,0.5]];portConstraint=eastwest;whiteSpace=wrap;html=1;" vertex="1" parent="JLwQQzpklkS4TawODwUs-1">
          <mxGeometry y="78" width="200" height="26" as="geometry" />
        </mxCell>
        <mxCell id="JLwQQzpklkS4TawODwUs-13" value="+ DefaultWords: vector&amp;lt;pair&amp;lt;string, string&amp;gt;" style="text;strokeColor=none;fillColor=none;align=left;verticalAlign=top;spacingLeft=4;spacingRight=4;overflow=hidden;rotatable=0;points=[[0,0.5],[1,0.5]];portConstraint=eastwest;whiteSpace=wrap;html=1;" vertex="1" parent="JLwQQzpklkS4TawODwUs-1">
          <mxGeometry y="104" width="200" height="36" as="geometry" />
        </mxCell>
        <mxCell id="JLwQQzpklkS4TawODwUs-3" value="" style="line;strokeWidth=1;fillColor=none;align=left;verticalAlign=middle;spacingTop=-1;spacingLeft=3;spacingRight=3;rotatable=0;labelPosition=right;points=[];portConstraint=eastwest;strokeColor=inherit;" vertex="1" parent="JLwQQzpklkS4TawODwUs-1">
          <mxGeometry y="140" width="200" height="10" as="geometry" />
        </mxCell>
        <mxCell id="JLwQQzpklkS4TawODwUs-33" value=" + onEnterFullWord(): void" style="text;whiteSpace=wrap;" vertex="1" parent="JLwQQzpklkS4TawODwUs-1">
          <mxGeometry y="150" width="200" height="20" as="geometry" />
        </mxCell>
        <mxCell id="JLwQQzpklkS4TawODwUs-19" value="     + on_GetPath_clicked(): void&lt;div&gt;&lt;br/&gt;&lt;/div&gt;" style="text;strokeColor=none;fillColor=none;align=left;verticalAlign=top;spacingLeft=4;spacingRight=4;overflow=hidden;rotatable=0;points=[[0,0.5],[1,0.5]];portConstraint=eastwest;whiteSpace=wrap;html=1;" vertex="1" parent="JLwQQzpklkS4TawODwUs-1">
          <mxGeometry y="170" width="200" height="20" as="geometry" />
        </mxCell>
        <mxCell id="JLwQQzpklkS4TawODwUs-29" value=" + on_SetWord_clicked(): void" style="text;whiteSpace=wrap;" vertex="1" parent="JLwQQzpklkS4TawODwUs-1">
          <mxGeometry y="190" width="200" height="22" as="geometry" />
        </mxCell>
        <mxCell id="JLwQQzpklkS4TawODwUs-10" value="     + on_SetLetter_clicked(): void&lt;div&gt;&lt;br/&gt;&lt;/div&gt;" style="text;strokeColor=none;fillColor=none;align=left;verticalAlign=top;spacingLeft=4;spacingRight=4;overflow=hidden;rotatable=0;points=[[0,0.5],[1,0.5]];portConstraint=eastwest;whiteSpace=wrap;html=1;" vertex="1" parent="JLwQQzpklkS4TawODwUs-1">
          <mxGeometry y="212" width="200" height="26" as="geometry" />
        </mxCell>
        <mxCell id="JLwQQzpklkS4TawODwUs-21" value="&lt;div&gt;     + on_ExitButton_clicked(): void &lt;br&gt;&lt;/div&gt;" style="text;strokeColor=none;fillColor=none;align=left;verticalAlign=top;spacingLeft=4;spacingRight=4;overflow=hidden;rotatable=0;points=[[0,0.5],[1,0.5]];portConstraint=eastwest;whiteSpace=wrap;html=1;" vertex="1" parent="JLwQQzpklkS4TawODwUs-1">
          <mxGeometry y="238" width="200" height="20" as="geometry" />
        </mxCell>
        <mxCell id="JLwQQzpklkS4TawODwUs-16" value="&lt;div&gt;     + on_PlayButton_clicked(): void &lt;br&gt;&lt;/div&gt;" style="text;strokeColor=none;fillColor=none;align=left;verticalAlign=top;spacingLeft=4;spacingRight=4;overflow=hidden;rotatable=0;points=[[0,0.5],[1,0.5]];portConstraint=eastwest;whiteSpace=wrap;html=1;" vertex="1" parent="JLwQQzpklkS4TawODwUs-1">
          <mxGeometry y="258" width="200" height="20" as="geometry" />
        </mxCell>
        <mxCell id="JLwQQzpklkS4TawODwUs-35" value=" + on_SaveButton_clicked(): void" style="text;whiteSpace=wrap;" vertex="1" parent="JLwQQzpklkS4TawODwUs-1">
          <mxGeometry y="278" width="200" height="20" as="geometry" />
        </mxCell>
        <mxCell id="JLwQQzpklkS4TawODwUs-30" value=" + on_Player1_textChanged(): void" style="text;whiteSpace=wrap;" vertex="1" parent="JLwQQzpklkS4TawODwUs-1">
          <mxGeometry y="298" width="200" height="20" as="geometry" />
        </mxCell>
        <mxCell id="JLwQQzpklkS4TawODwUs-32" value=" + on_Player2_textChanged(): void" style="text;whiteSpace=wrap;" vertex="1" parent="JLwQQzpklkS4TawODwUs-1">
          <mxGeometry y="318" width="200" height="20" as="geometry" />
        </mxCell>
        <mxCell id="JLwQQzpklkS4TawODwUs-20" value="     + on_HumanComp_clicked(): void&lt;div&gt;&lt;br/&gt;&lt;/div&gt;" style="text;strokeColor=none;fillColor=none;align=left;verticalAlign=top;spacingLeft=4;spacingRight=4;overflow=hidden;rotatable=0;points=[[0,0.5],[1,0.5]];portConstraint=eastwest;whiteSpace=wrap;html=1;" vertex="1" parent="JLwQQzpklkS4TawODwUs-1">
          <mxGeometry y="338" width="200" height="20" as="geometry" />
        </mxCell>
        <mxCell id="JLwQQzpklkS4TawODwUs-22" value="     + on_CompHuman_clicked(): void&lt;div&gt;&lt;br/&gt;&lt;/div&gt;" style="text;strokeColor=none;fillColor=none;align=left;verticalAlign=top;spacingLeft=4;spacingRight=4;overflow=hidden;rotatable=0;points=[[0,0.5],[1,0.5]];portConstraint=eastwest;whiteSpace=wrap;html=1;" vertex="1" parent="JLwQQzpklkS4TawODwUs-1">
          <mxGeometry y="358" width="200" height="20" as="geometry" />
        </mxCell>
        <mxCell id="JLwQQzpklkS4TawODwUs-18" value="     + on_SaveSettings_clicked(): void&lt;div&gt;&lt;br/&gt;&lt;/div&gt;" style="text;strokeColor=none;fillColor=none;align=left;verticalAlign=top;spacingLeft=4;spacingRight=4;overflow=hidden;rotatable=0;points=[[0,0.5],[1,0.5]];portConstraint=eastwest;whiteSpace=wrap;html=1;" vertex="1" parent="JLwQQzpklkS4TawODwUs-1">
          <mxGeometry y="378" width="200" height="20" as="geometry" />
        </mxCell>
        <mxCell id="JLwQQzpklkS4TawODwUs-9" value="     + on_textEdit_textChanged(): void&lt;div&gt;&lt;br/&gt;&lt;/div&gt;" style="text;strokeColor=none;fillColor=none;align=left;verticalAlign=top;spacingLeft=4;spacingRight=4;overflow=hidden;rotatable=0;points=[[0,0.5],[1,0.5]];portConstraint=eastwest;whiteSpace=wrap;html=1;" vertex="1" parent="JLwQQzpklkS4TawODwUs-1">
          <mxGeometry y="398" width="200" height="20" as="geometry" />
        </mxCell>
        <mxCell id="JLwQQzpklkS4TawODwUs-24" value="     + on_EnterFullWord_clicked(): void&lt;div&gt;&lt;br/&gt;&lt;/div&gt;" style="text;strokeColor=none;fillColor=none;align=left;verticalAlign=top;spacingLeft=4;spacingRight=4;overflow=hidden;rotatable=0;points=[[0,0.5],[1,0.5]];portConstraint=eastwest;whiteSpace=wrap;html=1;" vertex="1" parent="JLwQQzpklkS4TawODwUs-1">
          <mxGeometry y="418" width="200" height="24" as="geometry" />
        </mxCell>
        <mxCell id="JLwQQzpklkS4TawODwUs-25" value="     + on_HumanHuman_clicked(): void&lt;div&gt;&lt;br/&gt;&lt;/div&gt;" style="text;strokeColor=none;fillColor=none;align=left;verticalAlign=top;spacingLeft=4;spacingRight=4;overflow=hidden;rotatable=0;points=[[0,0.5],[1,0.5]];portConstraint=eastwest;whiteSpace=wrap;html=1;" vertex="1" parent="JLwQQzpklkS4TawODwUs-1">
          <mxGeometry y="442" width="200" height="26" as="geometry" />
        </mxCell>
        <mxCell id="JLwQQzpklkS4TawODwUs-17" value="&lt;div&gt;     + on_SettingsButton_clicked(): void &lt;br&gt;&lt;/div&gt;&lt;div&gt;&lt;br&gt;&lt;/div&gt;" style="text;strokeColor=none;fillColor=none;align=left;verticalAlign=top;spacingLeft=4;spacingRight=4;overflow=hidden;rotatable=0;points=[[0,0.5],[1,0.5]];portConstraint=eastwest;whiteSpace=wrap;html=1;" vertex="1" parent="JLwQQzpklkS4TawODwUs-1">
          <mxGeometry y="468" width="200" height="20" as="geometry" />
        </mxCell>
        <mxCell id="JLwQQzpklkS4TawODwUs-23" value="     + on_ReturnToMainMenu_clicked(): void&lt;div&gt;&lt;br/&gt;&lt;/div&gt;" style="text;strokeColor=none;fillColor=none;align=left;verticalAlign=top;spacingLeft=4;spacingRight=4;overflow=hidden;rotatable=0;points=[[0,0.5],[1,0.5]];portConstraint=eastwest;whiteSpace=wrap;html=1;" vertex="1" parent="JLwQQzpklkS4TawODwUs-1">
          <mxGeometry y="488" width="200" height="30" as="geometry" />
        </mxCell>
        <mxCell id="JLwQQzpklkS4TawODwUs-34" value="+ on_PlayersEdit_textChanged(): void" style="text;whiteSpace=wrap;" vertex="1" parent="JLwQQzpklkS4TawODwUs-1">
          <mxGeometry y="518" width="200" height="30" as="geometry" />
        </mxCell>
        <mxCell id="JLwQQzpklkS4TawODwUs-28" value="     + on_textEdit_2_textChanged(): void&lt;div&gt;&lt;br/&gt;&lt;/div&gt;" style="text;strokeColor=none;fillColor=none;align=left;verticalAlign=top;spacingLeft=4;spacingRight=4;overflow=hidden;rotatable=0;points=[[0,0.5],[1,0.5]];portConstraint=eastwest;whiteSpace=wrap;html=1;" vertex="1" parent="JLwQQzpklkS4TawODwUs-1">
          <mxGeometry y="548" width="200" height="36" as="geometry" />
        </mxCell>
        <mxCell id="JLwQQzpklkS4TawODwUs-36" value="" style="endArrow=open;endFill=1;endSize=12;html=1;rounded=0;entryX=-0.014;entryY=0.797;entryDx=0;entryDy=0;entryPerimeter=0;exitX=1;exitY=0.5;exitDx=0;exitDy=0;" edge="1" parent="1" source="JLwQQzpklkS4TawODwUs-2" target="JLwQQzpklkS4TawODwUs-39">
          <mxGeometry width="160" relative="1" as="geometry">
            <mxPoint x="280" y="480" as="sourcePoint" />
            <mxPoint x="435" y="480" as="targetPoint" />
          </mxGeometry>
        </mxCell>
        <mxCell id="JLwQQzpklkS4TawODwUs-37" value="" style="endArrow=open;endFill=1;endSize=12;html=1;rounded=0;entryX=0;entryY=0.5;entryDx=0;entryDy=0;exitX=1;exitY=0.5;exitDx=0;exitDy=0;" edge="1" parent="1" source="JLwQQzpklkS4TawODwUs-15" target="JLwQQzpklkS4TawODwUs-46">
          <mxGeometry width="160" relative="1" as="geometry">
            <mxPoint x="280" y="620" as="sourcePoint" />
            <mxPoint x="425" y="620" as="targetPoint" />
          </mxGeometry>
        </mxCell>
        <mxCell id="JLwQQzpklkS4TawODwUs-38" value="Settings" style="swimlane;fontStyle=1;align=center;verticalAlign=top;childLayout=stackLayout;horizontal=1;startSize=26;horizontalStack=0;resizeParent=1;resizeParentMax=0;resizeLast=0;collapsible=1;marginBottom=0;whiteSpace=wrap;html=1;" vertex="1" parent="1">
          <mxGeometry x="425" y="340" width="180" height="232" as="geometry" />
        </mxCell>
        <mxCell id="JLwQQzpklkS4TawODwUs-47" value="+ jsonPath: string" style="text;strokeColor=none;fillColor=none;align=left;verticalAlign=top;spacingLeft=4;spacingRight=4;overflow=hidden;rotatable=0;points=[[0,0.5],[1,0.5]];portConstraint=eastwest;whiteSpace=wrap;html=1;" vertex="1" parent="JLwQQzpklkS4TawODwUs-38">
          <mxGeometry y="26" width="180" height="26" as="geometry" />
        </mxCell>
        <mxCell id="JLwQQzpklkS4TawODwUs-39" value="+ difficulty: string" style="text;strokeColor=none;fillColor=none;align=left;verticalAlign=top;spacingLeft=4;spacingRight=4;overflow=hidden;rotatable=0;points=[[0,0.5],[1,0.5]];portConstraint=eastwest;whiteSpace=wrap;html=1;" vertex="1" parent="JLwQQzpklkS4TawODwUs-38">
          <mxGeometry y="52" width="180" height="26" as="geometry" />
        </mxCell>
        <mxCell id="JLwQQzpklkS4TawODwUs-40" value="" style="line;strokeWidth=1;fillColor=none;align=left;verticalAlign=middle;spacingTop=-1;spacingLeft=3;spacingRight=3;rotatable=0;labelPosition=right;points=[];portConstraint=eastwest;strokeColor=inherit;" vertex="1" parent="JLwQQzpklkS4TawODwUs-38">
          <mxGeometry y="78" width="180" height="8" as="geometry" />
        </mxCell>
        <mxCell id="JLwQQzpklkS4TawODwUs-48" value="+ SetAll(path:string, difficulty:string): void&lt;br&gt;&lt;div&gt;&lt;br&gt;&lt;/div&gt;" style="text;strokeColor=none;fillColor=none;align=left;verticalAlign=top;spacingLeft=4;spacingRight=4;overflow=hidden;rotatable=0;points=[[0,0.5],[1,0.5]];portConstraint=eastwest;whiteSpace=wrap;html=1;" vertex="1" parent="JLwQQzpklkS4TawODwUs-38">
          <mxGeometry y="86" width="180" height="34" as="geometry" />
        </mxCell>
        <mxCell id="JLwQQzpklkS4TawODwUs-41" value="+ SetDifficulty(difficulty:string): void&lt;br&gt;&lt;div&gt;&lt;br&gt;&lt;/div&gt;" style="text;strokeColor=none;fillColor=none;align=left;verticalAlign=top;spacingLeft=4;spacingRight=4;overflow=hidden;rotatable=0;points=[[0,0.5],[1,0.5]];portConstraint=eastwest;whiteSpace=wrap;html=1;" vertex="1" parent="JLwQQzpklkS4TawODwUs-38">
          <mxGeometry y="120" width="180" height="34" as="geometry" />
        </mxCell>
        <mxCell id="JLwQQzpklkS4TawODwUs-50" value="+ SetPath(path:string): void&lt;br&gt;&lt;div&gt;&lt;br&gt;&lt;/div&gt;" style="text;strokeColor=none;fillColor=none;align=left;verticalAlign=top;spacingLeft=4;spacingRight=4;overflow=hidden;rotatable=0;points=[[0,0.5],[1,0.5]];portConstraint=eastwest;whiteSpace=wrap;html=1;" vertex="1" parent="JLwQQzpklkS4TawODwUs-38">
          <mxGeometry y="154" width="180" height="26" as="geometry" />
        </mxCell>
        <mxCell id="JLwQQzpklkS4TawODwUs-51" value="+ GetDifficulty(): string&lt;br&gt;&lt;div&gt;&lt;br&gt;&lt;/div&gt;" style="text;strokeColor=none;fillColor=none;align=left;verticalAlign=top;spacingLeft=4;spacingRight=4;overflow=hidden;rotatable=0;points=[[0,0.5],[1,0.5]];portConstraint=eastwest;whiteSpace=wrap;html=1;" vertex="1" parent="JLwQQzpklkS4TawODwUs-38">
          <mxGeometry y="180" width="180" height="26" as="geometry" />
        </mxCell>
        <mxCell id="JLwQQzpklkS4TawODwUs-52" value="+ GetPath(): string&lt;br&gt;&lt;div&gt;&lt;br&gt;&lt;/div&gt;" style="text;strokeColor=none;fillColor=none;align=left;verticalAlign=top;spacingLeft=4;spacingRight=4;overflow=hidden;rotatable=0;points=[[0,0.5],[1,0.5]];portConstraint=eastwest;whiteSpace=wrap;html=1;" vertex="1" parent="JLwQQzpklkS4TawODwUs-38">
          <mxGeometry y="206" width="180" height="26" as="geometry" />
        </mxCell>
        <mxCell id="JLwQQzpklkS4TawODwUs-42" value="Game" style="swimlane;fontStyle=1;align=center;verticalAlign=top;childLayout=stackLayout;horizontal=1;startSize=26;horizontalStack=0;resizeParent=1;resizeParentMax=0;resizeLast=0;collapsible=1;marginBottom=0;whiteSpace=wrap;html=1;" vertex="1" parent="1">
          <mxGeometry x="425" y="630" width="235" height="394" as="geometry" />
        </mxCell>
        <mxCell id="JLwQQzpklkS4TawODwUs-56" value="+ ui: Ui::MainWindow *" style="text;strokeColor=none;fillColor=none;align=left;verticalAlign=top;spacingLeft=4;spacingRight=4;overflow=hidden;rotatable=0;points=[[0,0.5],[1,0.5]];portConstraint=eastwest;whiteSpace=wrap;html=1;" vertex="1" parent="JLwQQzpklkS4TawODwUs-42">
          <mxGeometry y="26" width="235" height="14" as="geometry" />
        </mxCell>
        <mxCell id="JLwQQzpklkS4TawODwUs-43" value="+&amp;nbsp;wordToGuess: QString" style="text;strokeColor=none;fillColor=none;align=left;verticalAlign=top;spacingLeft=4;spacingRight=4;overflow=hidden;rotatable=0;points=[[0,0.5],[1,0.5]];portConstraint=eastwest;whiteSpace=wrap;html=1;" vertex="1" parent="JLwQQzpklkS4TawODwUs-42">
          <mxGeometry y="40" width="235" height="20" as="geometry" />
        </mxCell>
        <mxCell id="JLwQQzpklkS4TawODwUs-54" value="+&amp;nbsp;guessed: QString" style="text;strokeColor=none;fillColor=none;align=left;verticalAlign=top;spacingLeft=4;spacingRight=4;overflow=hidden;rotatable=0;points=[[0,0.5],[1,0.5]];portConstraint=eastwest;whiteSpace=wrap;html=1;" vertex="1" parent="JLwQQzpklkS4TawODwUs-42">
          <mxGeometry y="60" width="235" height="18" as="geometry" />
        </mxCell>
        <mxCell id="JLwQQzpklkS4TawODwUs-55" value="+&amp;nbsp;attemptsLeft: int" style="text;strokeColor=none;fillColor=none;align=left;verticalAlign=top;spacingLeft=4;spacingRight=4;overflow=hidden;rotatable=0;points=[[0,0.5],[1,0.5]];portConstraint=eastwest;whiteSpace=wrap;html=1;" vertex="1" parent="JLwQQzpklkS4TawODwUs-42">
          <mxGeometry y="78" width="235" height="20" as="geometry" />
        </mxCell>
        <mxCell id="JLwQQzpklkS4TawODwUs-53" value="+&amp;nbsp;maxAttempts: int" style="text;strokeColor=none;fillColor=none;align=left;verticalAlign=top;spacingLeft=4;spacingRight=4;overflow=hidden;rotatable=0;points=[[0,0.5],[1,0.5]];portConstraint=eastwest;whiteSpace=wrap;html=1;" vertex="1" parent="JLwQQzpklkS4TawODwUs-42">
          <mxGeometry y="98" width="235" height="20" as="geometry" />
        </mxCell>
        <mxCell id="JLwQQzpklkS4TawODwUs-57" value="+&amp;nbsp;attemptsChanged: bool" style="text;strokeColor=none;fillColor=none;align=left;verticalAlign=top;spacingLeft=4;spacingRight=4;overflow=hidden;rotatable=0;points=[[0,0.5],[1,0.5]];portConstraint=eastwest;whiteSpace=wrap;html=1;" vertex="1" parent="JLwQQzpklkS4TawODwUs-42">
          <mxGeometry y="118" width="235" height="20" as="geometry" />
        </mxCell>
        <mxCell id="JLwQQzpklkS4TawODwUs-46" value="+ usedLetters: unordered_map&amp;lt;QChar, bool&amp;gt;" style="text;strokeColor=none;fillColor=none;align=left;verticalAlign=top;spacingLeft=4;spacingRight=4;overflow=hidden;rotatable=0;points=[[0,0.5],[1,0.5]];portConstraint=eastwest;whiteSpace=wrap;html=1;" vertex="1" parent="JLwQQzpklkS4TawODwUs-42">
          <mxGeometry y="138" width="235" height="34" as="geometry" />
        </mxCell>
        <mxCell id="JLwQQzpklkS4TawODwUs-44" value="" style="line;strokeWidth=1;fillColor=none;align=left;verticalAlign=middle;spacingTop=-1;spacingLeft=3;spacingRight=3;rotatable=0;labelPosition=right;points=[];portConstraint=eastwest;strokeColor=inherit;" vertex="1" parent="JLwQQzpklkS4TawODwUs-42">
          <mxGeometry y="172" width="235" height="8" as="geometry" />
        </mxCell>
        <mxCell id="JLwQQzpklkS4TawODwUs-69" value="+ IsWordGuessed(): bool" style="text;strokeColor=none;fillColor=none;align=left;verticalAlign=top;spacingLeft=4;spacingRight=4;overflow=hidden;rotatable=0;points=[[0,0.5],[1,0.5]];portConstraint=eastwest;whiteSpace=wrap;html=1;" vertex="1" parent="JLwQQzpklkS4TawODwUs-42">
          <mxGeometry y="180" width="235" height="20" as="geometry" />
        </mxCell>
        <mxCell id="JLwQQzpklkS4TawODwUs-62" value="+ FullWord(text: QString): void" style="text;strokeColor=none;fillColor=none;align=left;verticalAlign=top;spacingLeft=4;spacingRight=4;overflow=hidden;rotatable=0;points=[[0,0.5],[1,0.5]];portConstraint=eastwest;whiteSpace=wrap;html=1;" vertex="1" parent="JLwQQzpklkS4TawODwUs-42">
          <mxGeometry y="200" width="235" height="20" as="geometry" />
        </mxCell>
        <mxCell id="JLwQQzpklkS4TawODwUs-70" value="+ IsLetterInWord(letter: QChar): bool" style="text;strokeColor=none;fillColor=none;align=left;verticalAlign=top;spacingLeft=4;spacingRight=4;overflow=hidden;rotatable=0;points=[[0,0.5],[1,0.5]];portConstraint=eastwest;whiteSpace=wrap;html=1;" vertex="1" parent="JLwQQzpklkS4TawODwUs-42">
          <mxGeometry y="220" width="235" height="20" as="geometry" />
        </mxCell>
        <mxCell id="JLwQQzpklkS4TawODwUs-71" value="+ UpdateGuessedWord(letter: QChar): bool" style="text;strokeColor=none;fillColor=none;align=left;verticalAlign=top;spacingLeft=4;spacingRight=4;overflow=hidden;rotatable=0;points=[[0,0.5],[1,0.5]];portConstraint=eastwest;whiteSpace=wrap;html=1;" vertex="1" parent="JLwQQzpklkS4TawODwUs-42">
          <mxGeometry y="240" width="235" height="30" as="geometry" />
        </mxCell>
        <mxCell id="JLwQQzpklkS4TawODwUs-65" value="+ EndGame(Animate: QStackedWidget *): void" style="text;strokeColor=none;fillColor=none;align=left;verticalAlign=top;spacingLeft=4;spacingRight=4;overflow=hidden;rotatable=0;points=[[0,0.5],[1,0.5]];portConstraint=eastwest;whiteSpace=wrap;html=1;" vertex="1" parent="JLwQQzpklkS4TawODwUs-42">
          <mxGeometry y="270" width="235" height="30" as="geometry" />
        </mxCell>
        <mxCell id="JLwQQzpklkS4TawODwUs-64" value="+ Check(textbox: QTextEdit *, Animate: QStackedWidget *, Label: QLabel *): void" style="text;strokeColor=none;fillColor=none;align=left;verticalAlign=top;spacingLeft=4;spacingRight=4;overflow=hidden;rotatable=0;points=[[0,0.5],[1,0.5]];portConstraint=eastwest;whiteSpace=wrap;html=1;" vertex="1" parent="JLwQQzpklkS4TawODwUs-42">
          <mxGeometry y="300" width="235" height="30" as="geometry" />
        </mxCell>
        <mxCell id="JLwQQzpklkS4TawODwUs-63" value="+ DisplayGameState(label: QTextEdit *, Animate: QStackedWidget *,&amp;nbsp; guessed: QString, attemptsLeft: int, maxAttempts: int): void" style="text;strokeColor=none;fillColor=none;align=left;verticalAlign=top;spacingLeft=4;spacingRight=4;overflow=hidden;rotatable=0;points=[[0,0.5],[1,0.5]];portConstraint=eastwest;whiteSpace=wrap;html=1;" vertex="1" parent="JLwQQzpklkS4TawODwUs-42">
          <mxGeometry y="330" width="235" height="64" as="geometry" />
        </mxCell>
      </root>
    </mxGraphModel>
  </diagram>
</mxfile>
